<svg id="图层_1" data-name="图层 1" xmlns="http://www.w3.org/2000/svg" xmlns:xlink="http://www.w3.org/1999/xlink" viewBox="0 0 1480.85 1480.85"><defs><style>.cls-1{fill:#040000;filter:url(#luminosity-noclip);}.cls-2{mask:url(#mask);}.cls-3{fill:none;stroke:#a5a5a5;stroke-miterlimit:10;stroke-width:3px;}.cls-4{opacity:0.28;}</style><filter id="luminosity-noclip" x="0" y="0" width="1480.85" height="1480.85" filterUnits="userSpaceOnUse" color-interpolation-filters="sRGB"><feFlood flood-color="#fff" result="bg"/><feBlend in="SourceGraphic" in2="bg"/></filter><mask id="mask" x="0" y="0" width="1480.85" height="1480.85" maskUnits="userSpaceOnUse"><circle class="cls-1" cx="740.42" cy="740.42" r="681.07"/></mask></defs><title>11</title><g class="cls-2"><line class="cls-3" x1="739.43" y1="1480.85" x2="741.42"/><line class="cls-3" x1="713.59" y1="1480.36" x2="767.26" y2="0.49"/><line class="cls-3" x1="687.78" y1="1478.97" x2="793.06" y2="1.87"/><line class="cls-3" x1="662.04" y1="1476.69" x2="818.81" y2="4.16"/><line class="cls-3" x1="636.39" y1="1473.5" x2="844.46" y2="7.35"/><line class="cls-3" x1="610.87" y1="1469.43" x2="869.98" y2="11.42"/><line class="cls-3" x1="585.51" y1="1464.46" x2="895.34" y2="16.39"/><line class="cls-3" x1="560.34" y1="1458.61" x2="920.51" y2="22.24"/><line class="cls-3" x1="535.38" y1="1451.89" x2="945.47" y2="28.96"/><line class="cls-3" x1="510.68" y1="1444.3" x2="970.17" y2="36.55"/><line class="cls-3" x1="486.25" y1="1435.85" x2="994.6" y2="44.99"/><line class="cls-3" x1="462.14" y1="1426.56" x2="1018.71" y2="54.29"/><line class="cls-3" x1="438.36" y1="1416.43" x2="1042.49" y2="64.42"/><line class="cls-3" x1="414.95" y1="1405.48" x2="1065.9" y2="75.37"/><line class="cls-3" x1="391.94" y1="1393.71" x2="1088.91" y2="87.14"/><line class="cls-3" x1="369.35" y1="1381.15" x2="1111.5" y2="99.7"/><line class="cls-3" x1="347.22" y1="1367.81" x2="1133.63" y2="113.04"/><line class="cls-3" x1="325.56" y1="1353.71" x2="1155.29" y2="127.14"/><line class="cls-3" x1="304.41" y1="1338.85" x2="1176.44" y2="141.99"/><line class="cls-3" x1="283.79" y1="1323.27" x2="1197.06" y2="157.58"/><line class="cls-3" x1="263.73" y1="1306.98" x2="1217.12" y2="173.87"/><line class="cls-3" x1="244.25" y1="1290" x2="1236.6" y2="190.85"/><line class="cls-3" x1="225.37" y1="1272.35" x2="1255.48" y2="208.5"/><line class="cls-3" x1="207.12" y1="1254.05" x2="1273.73" y2="226.8"/><line class="cls-3" x1="189.52" y1="1235.12" x2="1291.33" y2="245.72"/><line class="cls-3" x1="172.59" y1="1215.6" x2="1308.26" y2="265.25"/><line class="cls-3" x1="156.35" y1="1195.49" x2="1324.5" y2="285.36"/><line class="cls-3" x1="140.83" y1="1174.83" x2="1340.02" y2="306.02"/><line class="cls-3" x1="126.03" y1="1153.64" x2="1354.82" y2="327.21"/><line class="cls-3" x1="111.98" y1="1131.95" x2="1368.86" y2="348.9"/><line class="cls-3" x1="98.7" y1="1109.77" x2="1382.15" y2="371.07"/><line class="cls-3" x1="86.2" y1="1087.15" x2="1394.64" y2="393.69"/><line class="cls-3" x1="74.5" y1="1064.11" x2="1406.35" y2="416.74"/><line class="cls-3" x1="63.61" y1="1040.67" x2="1417.24" y2="440.18"/><line class="cls-3" x1="53.54" y1="1016.87" x2="1427.3" y2="463.98"/><line class="cls-3" x1="44.31" y1="992.73" x2="1436.53" y2="488.12"/><line class="cls-3" x1="35.93" y1="968.28" x2="1444.91" y2="512.57"/><line class="cls-3" x1="28.41" y1="943.56" x2="1452.44" y2="537.29"/><line class="cls-3" x1="21.76" y1="918.58" x2="1459.09" y2="562.26"/><line class="cls-3" x1="15.98" y1="893.39" x2="1464.87" y2="587.45"/><line class="cls-3" x1="11.08" y1="868.02" x2="1469.77" y2="612.83"/><line class="cls-3" x1="7.07" y1="842.49" x2="1473.78" y2="638.36"/><line class="cls-3" x1="3.95" y1="816.83" x2="1476.89" y2="664.02"/><line class="cls-3" x1="1.74" y1="791.08" x2="1479.11" y2="689.77"/><line class="cls-3" x1="0.42" y1="765.27" x2="1480.43" y2="715.58"/><line class="cls-3" y1="739.43" x2="1480.85" y2="741.42"/><line class="cls-3" x1="0.49" y1="713.59" x2="1480.36" y2="767.26"/><line class="cls-3" x1="1.87" y1="687.78" x2="1478.97" y2="793.06"/><line class="cls-3" x1="4.16" y1="662.04" x2="1476.69" y2="818.81"/><line class="cls-3" x1="7.35" y1="636.39" x2="1473.5" y2="844.46"/><line class="cls-3" x1="11.42" y1="610.87" x2="1469.43" y2="869.98"/><line class="cls-3" x1="16.39" y1="585.51" x2="1464.46" y2="895.34"/><line class="cls-3" x1="22.24" y1="560.34" x2="1458.61" y2="920.51"/><line class="cls-3" x1="28.96" y1="535.38" x2="1451.89" y2="945.47"/><line class="cls-3" x1="36.55" y1="510.68" x2="1444.3" y2="970.17"/><line class="cls-3" x1="44.99" y1="486.25" x2="1435.85" y2="994.6"/><line class="cls-3" x1="54.29" y1="462.14" x2="1426.56" y2="1018.71"/><line class="cls-3" x1="64.42" y1="438.36" x2="1416.43" y2="1042.49"/><line class="cls-3" x1="75.37" y1="414.95" x2="1405.48" y2="1065.9"/><line class="cls-3" x1="87.14" y1="391.94" x2="1393.71" y2="1088.91"/><line class="cls-3" x1="99.7" y1="369.35" x2="1381.15" y2="1111.5"/><line class="cls-3" x1="113.04" y1="347.22" x2="1367.81" y2="1133.63"/><line class="cls-3" x1="127.14" y1="325.56" x2="1353.71" y2="1155.29"/><line class="cls-3" x1="141.99" y1="304.41" x2="1338.85" y2="1176.44"/><line class="cls-3" x1="157.58" y1="283.79" x2="1323.27" y2="1197.06"/><line class="cls-3" x1="173.87" y1="263.73" x2="1306.98" y2="1217.12"/><line class="cls-3" x1="190.85" y1="244.25" x2="1290" y2="1236.6"/><line class="cls-3" x1="208.5" y1="225.37" x2="1272.35" y2="1255.48"/><line class="cls-3" x1="226.8" y1="207.12" x2="1254.05" y2="1273.73"/><line class="cls-3" x1="245.72" y1="189.52" x2="1235.12" y2="1291.33"/><line class="cls-3" x1="265.25" y1="172.59" x2="1215.6" y2="1308.26"/><line class="cls-3" x1="285.36" y1="156.35" x2="1195.49" y2="1324.5"/><line class="cls-3" x1="306.02" y1="140.83" x2="1174.83" y2="1340.02"/><line class="cls-3" x1="327.21" y1="126.03" x2="1153.64" y2="1354.82"/><line class="cls-3" x1="348.9" y1="111.98" x2="1131.95" y2="1368.86"/><line class="cls-3" x1="371.07" y1="98.7" x2="1109.77" y2="1382.15"/><line class="cls-3" x1="393.69" y1="86.2" x2="1087.15" y2="1394.64"/><line class="cls-3" x1="416.74" y1="74.5" x2="1064.11" y2="1406.35"/><line class="cls-3" x1="440.18" y1="63.61" x2="1040.67" y2="1417.24"/><line class="cls-3" x1="463.98" y1="53.54" x2="1016.87" y2="1427.3"/><line class="cls-3" x1="488.12" y1="44.31" x2="992.73" y2="1436.53"/><line class="cls-3" x1="512.57" y1="35.93" x2="968.28" y2="1444.91"/><line class="cls-3" x1="537.29" y1="28.41" x2="943.56" y2="1452.44"/><line class="cls-3" x1="562.26" y1="21.76" x2="918.58" y2="1459.09"/><line class="cls-3" x1="587.45" y1="15.98" x2="893.39" y2="1464.87"/><line class="cls-3" x1="612.83" y1="11.08" x2="868.02" y2="1469.77"/><line class="cls-3" x1="638.36" y1="7.07" x2="842.49" y2="1473.78"/><line class="cls-3" x1="664.02" y1="3.95" x2="816.83" y2="1476.89"/><line class="cls-3" x1="689.77" y1="1.74" x2="791.08" y2="1479.11"/><line class="cls-3" x1="715.58" y1="0.42" x2="765.27" y2="1480.43"/><line class="cls-3" x1="741.42" x2="739.43" y2="1480.85"/><line class="cls-3" x1="767.26" y1="0.49" x2="713.59" y2="1480.36"/><line class="cls-3" x1="793.06" y1="1.87" x2="687.78" y2="1478.97"/><line class="cls-3" x1="818.81" y1="4.16" x2="662.04" y2="1476.69"/><line class="cls-3" x1="844.46" y1="7.35" x2="636.39" y2="1473.5"/><line class="cls-3" x1="869.98" y1="11.42" x2="610.87" y2="1469.43"/><line class="cls-3" x1="895.34" y1="16.39" x2="585.51" y2="1464.46"/><line class="cls-3" x1="920.51" y1="22.24" x2="560.34" y2="1458.61"/><line class="cls-3" x1="945.47" y1="28.96" x2="535.38" y2="1451.89"/><line class="cls-3" x1="970.17" y1="36.55" x2="510.68" y2="1444.3"/><line class="cls-3" x1="994.6" y1="44.99" x2="486.25" y2="1435.85"/><line class="cls-3" x1="1018.71" y1="54.29" x2="462.14" y2="1426.56"/><line class="cls-3" x1="1042.49" y1="64.42" x2="438.36" y2="1416.43"/><line class="cls-3" x1="1065.9" y1="75.37" x2="414.95" y2="1405.48"/><line class="cls-3" x1="1088.91" y1="87.14" x2="391.94" y2="1393.71"/><line class="cls-3" x1="1111.5" y1="99.7" x2="369.35" y2="1381.15"/><line class="cls-3" x1="1133.63" y1="113.04" x2="347.22" y2="1367.81"/><line class="cls-3" x1="1155.29" y1="127.14" x2="325.56" y2="1353.71"/><line class="cls-3" x1="1176.44" y1="141.99" x2="304.41" y2="1338.85"/><line class="cls-3" x1="1197.06" y1="157.58" x2="283.79" y2="1323.27"/><line class="cls-3" x1="1217.12" y1="173.87" x2="263.73" y2="1306.98"/><line class="cls-3" x1="1236.6" y1="190.85" x2="244.25" y2="1290"/><line class="cls-3" x1="1255.48" y1="208.5" x2="225.37" y2="1272.35"/><line class="cls-3" x1="1273.73" y1="226.8" x2="207.12" y2="1254.05"/><line class="cls-3" x1="1291.33" y1="245.72" x2="189.52" y2="1235.12"/><line class="cls-3" x1="1308.26" y1="265.25" x2="172.59" y2="1215.6"/><line class="cls-3" x1="1324.5" y1="285.36" x2="156.35" y2="1195.49"/><line class="cls-3" x1="1340.02" y1="306.02" x2="140.83" y2="1174.83"/><line class="cls-3" x1="1354.82" y1="327.21" x2="126.03" y2="1153.64"/><line class="cls-3" x1="1368.86" y1="348.9" x2="111.98" y2="1131.95"/><line class="cls-3" x1="1382.15" y1="371.07" x2="98.7" y2="1109.77"/><line class="cls-3" x1="1394.64" y1="393.69" x2="86.2" y2="1087.15"/><line class="cls-3" x1="1406.35" y1="416.74" x2="74.5" y2="1064.11"/><line class="cls-3" x1="1417.24" y1="440.18" x2="63.61" y2="1040.67"/><line class="cls-3" x1="1427.3" y1="463.98" x2="53.54" y2="1016.87"/><line class="cls-3" x1="1436.53" y1="488.12" x2="44.31" y2="992.73"/><line class="cls-3" x1="1444.91" y1="512.57" x2="35.93" y2="968.28"/><line class="cls-3" x1="1452.44" y1="537.29" x2="28.41" y2="943.56"/><line class="cls-3" x1="1459.09" y1="562.26" x2="21.76" y2="918.58"/><line class="cls-3" x1="1464.87" y1="587.45" x2="15.98" y2="893.39"/><line class="cls-3" x1="1469.77" y1="612.83" x2="11.08" y2="868.02"/><line class="cls-3" x1="1473.78" y1="638.36" x2="7.07" y2="842.49"/><line class="cls-3" x1="1476.89" y1="664.02" x2="3.95" y2="816.83"/><line class="cls-3" x1="1479.11" y1="689.77" x2="1.74" y2="791.08"/><line class="cls-3" x1="1480.43" y1="715.58" x2="0.42" y2="765.27"/><line class="cls-3" x1="1480.85" y1="741.42" y2="739.43"/><line class="cls-3" x1="1480.36" y1="767.26" x2="0.49" y2="713.59"/><line class="cls-3" x1="1478.97" y1="793.06" x2="1.87" y2="687.78"/><line class="cls-3" x1="1476.69" y1="818.81" x2="4.16" y2="662.04"/><line class="cls-3" x1="1473.5" y1="844.46" x2="7.35" y2="636.39"/><line class="cls-3" x1="1469.43" y1="869.98" x2="11.42" y2="610.87"/><line class="cls-3" x1="1464.46" y1="895.34" x2="16.39" y2="585.51"/><line class="cls-3" x1="1458.61" y1="920.51" x2="22.24" y2="560.34"/><line class="cls-3" x1="1451.89" y1="945.47" x2="28.96" y2="535.38"/><line class="cls-3" x1="1444.3" y1="970.17" x2="36.55" y2="510.68"/><line class="cls-3" x1="1435.85" y1="994.6" x2="44.99" y2="486.25"/><line class="cls-3" x1="1426.56" y1="1018.71" x2="54.29" y2="462.14"/><line class="cls-3" x1="1416.43" y1="1042.49" x2="64.42" y2="438.36"/><line class="cls-3" x1="1405.48" y1="1065.9" x2="75.37" y2="414.95"/><line class="cls-3" x1="1393.71" y1="1088.91" x2="87.14" y2="391.94"/><line class="cls-3" x1="1381.15" y1="1111.5" x2="99.7" y2="369.35"/><line class="cls-3" x1="1367.81" y1="1133.63" x2="113.04" y2="347.22"/><line class="cls-3" x1="1353.71" y1="1155.29" x2="127.14" y2="325.56"/><line class="cls-3" x1="1338.85" y1="1176.44" x2="141.99" y2="304.41"/><line class="cls-3" x1="1323.27" y1="1197.06" x2="157.58" y2="283.79"/><line class="cls-3" x1="1306.98" y1="1217.12" x2="173.87" y2="263.73"/><line class="cls-3" x1="1290" y1="1236.6" x2="190.85" y2="244.25"/><line class="cls-3" x1="1272.35" y1="1255.48" x2="208.5" y2="225.37"/><line class="cls-3" x1="1254.05" y1="1273.73" x2="226.8" y2="207.12"/><line class="cls-3" x1="1235.12" y1="1291.33" x2="245.72" y2="189.52"/><line class="cls-3" x1="1215.6" y1="1308.26" x2="265.25" y2="172.59"/><line class="cls-3" x1="1195.49" y1="1324.5" x2="285.36" y2="156.35"/><line class="cls-3" x1="1174.83" y1="1340.02" x2="306.02" y2="140.83"/><line class="cls-3" x1="1153.64" y1="1354.82" x2="327.21" y2="126.03"/><line class="cls-3" x1="1131.95" y1="1368.86" x2="348.9" y2="111.98"/><line class="cls-3" x1="1109.77" y1="1382.15" x2="371.07" y2="98.7"/><line class="cls-3" x1="1087.15" y1="1394.64" x2="393.69" y2="86.2"/><line class="cls-3" x1="1064.11" y1="1406.35" x2="416.74" y2="74.5"/><line class="cls-3" x1="1040.67" y1="1417.24" x2="440.18" y2="63.61"/><line class="cls-3" x1="1016.87" y1="1427.3" x2="463.98" y2="53.54"/><line class="cls-3" x1="992.73" y1="1436.53" x2="488.12" y2="44.31"/><line class="cls-3" x1="968.28" y1="1444.91" x2="512.57" y2="35.93"/><line class="cls-3" x1="943.56" y1="1452.44" x2="537.29" y2="28.41"/><line class="cls-3" x1="918.58" y1="1459.09" x2="562.26" y2="21.76"/><line class="cls-3" x1="893.39" y1="1464.87" x2="587.45" y2="15.98"/><line class="cls-3" x1="868.02" y1="1469.77" x2="612.83" y2="11.08"/><line class="cls-3" x1="842.49" y1="1473.78" x2="638.36" y2="7.07"/><line class="cls-3" x1="816.83" y1="1476.89" x2="664.02" y2="3.95"/><line class="cls-3" x1="791.08" y1="1479.11" x2="689.77" y2="1.74"/><line class="cls-3" x1="765.27" y1="1480.43" x2="715.58" y2="0.42"/><line class="cls-3" x1="739.43" y1="1480.85" x2="741.42"/></g><g class="cls-4"><line class="cls-3" x1="739.43" y1="1480.85" x2="741.42"/><line class="cls-3" x1="713.59" y1="1480.36" x2="767.26" y2="0.49"/><line class="cls-3" x1="687.78" y1="1478.97" x2="793.06" y2="1.87"/><line class="cls-3" x1="662.04" y1="1476.69" x2="818.81" y2="4.16"/><line class="cls-3" x1="636.39" y1="1473.5" x2="844.46" y2="7.35"/><line class="cls-3" x1="610.87" y1="1469.43" x2="869.98" y2="11.42"/><line class="cls-3" x1="585.51" y1="1464.46" x2="895.34" y2="16.39"/><line class="cls-3" x1="560.34" y1="1458.61" x2="920.51" y2="22.24"/><line class="cls-3" x1="535.38" y1="1451.89" x2="945.47" y2="28.96"/><line class="cls-3" x1="510.68" y1="1444.3" x2="970.17" y2="36.55"/><line class="cls-3" x1="486.25" y1="1435.85" x2="994.6" y2="44.99"/><line class="cls-3" x1="462.14" y1="1426.56" x2="1018.71" y2="54.29"/><line class="cls-3" x1="438.36" y1="1416.43" x2="1042.49" y2="64.42"/><line class="cls-3" x1="414.95" y1="1405.48" x2="1065.9" y2="75.37"/><line class="cls-3" x1="391.94" y1="1393.71" x2="1088.91" y2="87.14"/><line class="cls-3" x1="369.35" y1="1381.15" x2="1111.5" y2="99.7"/><line class="cls-3" x1="347.22" y1="1367.81" x2="1133.63" y2="113.04"/><line class="cls-3" x1="325.56" y1="1353.71" x2="1155.29" y2="127.14"/><line class="cls-3" x1="304.41" y1="1338.85" x2="1176.44" y2="141.99"/><line class="cls-3" x1="283.79" y1="1323.27" x2="1197.06" y2="157.58"/><line class="cls-3" x1="263.73" y1="1306.98" x2="1217.12" y2="173.87"/><line class="cls-3" x1="244.25" y1="1290" x2="1236.6" y2="190.85"/><line class="cls-3" x1="225.37" y1="1272.35" x2="1255.48" y2="208.5"/><line class="cls-3" x1="207.12" y1="1254.05" x2="1273.73" y2="226.8"/><line class="cls-3" x1="189.52" y1="1235.12" x2="1291.33" y2="245.72"/><line class="cls-3" x1="172.59" y1="1215.6" x2="1308.26" y2="265.25"/><line class="cls-3" x1="156.35" y1="1195.49" x2="1324.5" y2="285.36"/><line class="cls-3" x1="140.83" y1="1174.83" x2="1340.02" y2="306.02"/><line class="cls-3" x1="126.03" y1="1153.64" x2="1354.82" y2="327.21"/><line class="cls-3" x1="111.98" y1="1131.95" x2="1368.86" y2="348.9"/><line class="cls-3" x1="98.7" y1="1109.77" x2="1382.15" y2="371.07"/><line class="cls-3" x1="86.2" y1="1087.15" x2="1394.64" y2="393.69"/><line class="cls-3" x1="74.5" y1="1064.11" x2="1406.35" y2="416.74"/><line class="cls-3" x1="63.61" y1="1040.67" x2="1417.24" y2="440.18"/><line class="cls-3" x1="53.54" y1="1016.87" x2="1427.3" y2="463.98"/><line class="cls-3" x1="44.31" y1="992.73" x2="1436.53" y2="488.12"/><line class="cls-3" x1="35.93" y1="968.28" x2="1444.91" y2="512.57"/><line class="cls-3" x1="28.41" y1="943.56" x2="1452.44" y2="537.29"/><line class="cls-3" x1="21.76" y1="918.58" x2="1459.09" y2="562.26"/><line class="cls-3" x1="15.98" y1="893.39" x2="1464.87" y2="587.45"/><line class="cls-3" x1="11.08" y1="868.02" x2="1469.77" y2="612.83"/><line class="cls-3" x1="7.07" y1="842.49" x2="1473.78" y2="638.36"/><line class="cls-3" x1="3.95" y1="816.83" x2="1476.89" y2="664.02"/><line class="cls-3" x1="1.74" y1="791.08" x2="1479.11" y2="689.77"/><line class="cls-3" x1="0.42" y1="765.27" x2="1480.43" y2="715.58"/><line class="cls-3" y1="739.43" x2="1480.85" y2="741.42"/><line class="cls-3" x1="0.49" y1="713.59" x2="1480.36" y2="767.26"/><line class="cls-3" x1="1.87" y1="687.78" x2="1478.97" y2="793.06"/><line class="cls-3" x1="4.16" y1="662.04" x2="1476.69" y2="818.81"/><line class="cls-3" x1="7.35" y1="636.39" x2="1473.5" y2="844.46"/><line class="cls-3" x1="11.42" y1="610.87" x2="1469.43" y2="869.98"/><line class="cls-3" x1="16.39" y1="585.51" x2="1464.46" y2="895.34"/><line class="cls-3" x1="22.24" y1="560.34" x2="1458.61" y2="920.51"/><line class="cls-3" x1="28.96" y1="535.38" x2="1451.89" y2="945.47"/><line class="cls-3" x1="36.55" y1="510.68" x2="1444.3" y2="970.17"/><line class="cls-3" x1="44.99" y1="486.25" x2="1435.85" y2="994.6"/><line class="cls-3" x1="54.29" y1="462.14" x2="1426.56" y2="1018.71"/><line class="cls-3" x1="64.42" y1="438.36" x2="1416.43" y2="1042.49"/><line class="cls-3" x1="75.37" y1="414.95" x2="1405.48" y2="1065.9"/><line class="cls-3" x1="87.14" y1="391.94" x2="1393.71" y2="1088.91"/><line class="cls-3" x1="99.7" y1="369.35" x2="1381.15" y2="1111.5"/><line class="cls-3" x1="113.04" y1="347.22" x2="1367.81" y2="1133.63"/><line class="cls-3" x1="127.14" y1="325.56" x2="1353.71" y2="1155.29"/><line class="cls-3" x1="141.99" y1="304.41" x2="1338.85" y2="1176.44"/><line class="cls-3" x1="157.58" y1="283.79" x2="1323.27" y2="1197.06"/><line class="cls-3" x1="173.87" y1="263.73" x2="1306.98" y2="1217.12"/><line class="cls-3" x1="190.85" y1="244.25" x2="1290" y2="1236.6"/><line class="cls-3" x1="208.5" y1="225.37" x2="1272.35" y2="1255.48"/><line class="cls-3" x1="226.8" y1="207.12" x2="1254.05" y2="1273.73"/><line class="cls-3" x1="245.72" y1="189.52" x2="1235.12" y2="1291.33"/><line class="cls-3" x1="265.25" y1="172.59" x2="1215.6" y2="1308.26"/><line class="cls-3" x1="285.36" y1="156.35" x2="1195.49" y2="1324.5"/><line class="cls-3" x1="306.02" y1="140.83" x2="1174.83" y2="1340.02"/><line class="cls-3" x1="327.21" y1="126.03" x2="1153.64" y2="1354.82"/><line class="cls-3" x1="348.9" y1="111.98" x2="1131.95" y2="1368.86"/><line class="cls-3" x1="371.07" y1="98.7" x2="1109.77" y2="1382.15"/><line class="cls-3" x1="393.69" y1="86.2" x2="1087.15" y2="1394.64"/><line class="cls-3" x1="416.74" y1="74.5" x2="1064.11" y2="1406.35"/><line class="cls-3" x1="440.18" y1="63.61" x2="1040.67" y2="1417.24"/><line class="cls-3" x1="463.98" y1="53.54" x2="1016.87" y2="1427.3"/><line class="cls-3" x1="488.12" y1="44.31" x2="992.73" y2="1436.53"/><line class="cls-3" x1="512.57" y1="35.93" x2="968.28" y2="1444.91"/><line class="cls-3" x1="537.29" y1="28.41" x2="943.56" y2="1452.44"/><line class="cls-3" x1="562.26" y1="21.76" x2="918.58" y2="1459.09"/><line class="cls-3" x1="587.45" y1="15.98" x2="893.39" y2="1464.87"/><line class="cls-3" x1="612.83" y1="11.08" x2="868.02" y2="1469.77"/><line class="cls-3" x1="638.36" y1="7.07" x2="842.49" y2="1473.78"/><line class="cls-3" x1="664.02" y1="3.95" x2="816.83" y2="1476.89"/><line class="cls-3" x1="689.77" y1="1.74" x2="791.08" y2="1479.11"/><line class="cls-3" x1="715.58" y1="0.42" x2="765.27" y2="1480.43"/><line class="cls-3" x1="741.42" x2="739.43" y2="1480.85"/><line class="cls-3" x1="767.26" y1="0.49" x2="713.59" y2="1480.36"/><line class="cls-3" x1="793.06" y1="1.87" x2="687.78" y2="1478.97"/><line class="cls-3" x1="818.81" y1="4.16" x2="662.04" y2="1476.69"/><line class="cls-3" x1="844.46" y1="7.35" x2="636.39" y2="1473.5"/><line class="cls-3" x1="869.98" y1="11.42" x2="610.87" y2="1469.43"/><line class="cls-3" x1="895.34" y1="16.39" x2="585.51" y2="1464.46"/><line class="cls-3" x1="920.51" y1="22.24" x2="560.34" y2="1458.61"/><line class="cls-3" x1="945.47" y1="28.96" x2="535.38" y2="1451.89"/><line class="cls-3" x1="970.17" y1="36.55" x2="510.68" y2="1444.3"/><line class="cls-3" x1="994.6" y1="44.99" x2="486.25" y2="1435.85"/><line class="cls-3" x1="1018.71" y1="54.29" x2="462.14" y2="1426.56"/><line class="cls-3" x1="1042.49" y1="64.42" x2="438.36" y2="1416.43"/><line class="cls-3" x1="1065.9" y1="75.37" x2="414.95" y2="1405.48"/><line class="cls-3" x1="1088.91" y1="87.14" x2="391.94" y2="1393.71"/><line class="cls-3" x1="1111.5" y1="99.7" x2="369.35" y2="1381.15"/><line class="cls-3" x1="1133.63" y1="113.04" x2="347.22" y2="1367.81"/><line class="cls-3" x1="1155.29" y1="127.14" x2="325.56" y2="1353.71"/><line class="cls-3" x1="1176.44" y1="141.99" x2="304.41" y2="1338.85"/><line class="cls-3" x1="1197.06" y1="157.58" x2="283.79" y2="1323.27"/><line class="cls-3" x1="1217.12" y1="173.87" x2="263.73" y2="1306.98"/><line class="cls-3" x1="1236.6" y1="190.85" x2="244.25" y2="1290"/><line class="cls-3" x1="1255.48" y1="208.5" x2="225.37" y2="1272.35"/><line class="cls-3" x1="1273.73" y1="226.8" x2="207.12" y2="1254.05"/><line class="cls-3" x1="1291.33" y1="245.72" x2="189.52" y2="1235.12"/><line class="cls-3" x1="1308.26" y1="265.25" x2="172.59" y2="1215.6"/><line class="cls-3" x1="1324.5" y1="285.36" x2="156.35" y2="1195.49"/><line class="cls-3" x1="1340.02" y1="306.02" x2="140.83" y2="1174.83"/><line class="cls-3" x1="1354.82" y1="327.21" x2="126.03" y2="1153.64"/><line class="cls-3" x1="1368.86" y1="348.9" x2="111.98" y2="1131.95"/><line class="cls-3" x1="1382.15" y1="371.07" x2="98.7" y2="1109.77"/><line class="cls-3" x1="1394.64" y1="393.69" x2="86.2" y2="1087.15"/><line class="cls-3" x1="1406.35" y1="416.74" x2="74.5" y2="1064.11"/><line class="cls-3" x1="1417.24" y1="440.18" x2="63.61" y2="1040.67"/><line class="cls-3" x1="1427.3" y1="463.98" x2="53.54" y2="1016.87"/><line class="cls-3" x1="1436.53" y1="488.12" x2="44.31" y2="992.73"/><line class="cls-3" x1="1444.91" y1="512.57" x2="35.93" y2="968.28"/><line class="cls-3" x1="1452.44" y1="537.29" x2="28.41" y2="943.56"/><line class="cls-3" x1="1459.09" y1="562.26" x2="21.76" y2="918.58"/><line class="cls-3" x1="1464.87" y1="587.45" x2="15.98" y2="893.39"/><line class="cls-3" x1="1469.77" y1="612.83" x2="11.08" y2="868.02"/><line class="cls-3" x1="1473.78" y1="638.36" x2="7.07" y2="842.49"/><line class="cls-3" x1="1476.89" y1="664.02" x2="3.95" y2="816.83"/><line class="cls-3" x1="1479.11" y1="689.77" x2="1.74" y2="791.08"/><line class="cls-3" x1="1480.43" y1="715.58" x2="0.42" y2="765.27"/><line class="cls-3" x1="1480.85" y1="741.42" y2="739.43"/><line class="cls-3" x1="1480.36" y1="767.26" x2="0.49" y2="713.59"/><line class="cls-3" x1="1478.97" y1="793.06" x2="1.87" y2="687.78"/><line class="cls-3" x1="1476.69" y1="818.81" x2="4.16" y2="662.04"/><line class="cls-3" x1="1473.5" y1="844.46" x2="7.35" y2="636.39"/><line class="cls-3" x1="1469.43" y1="869.98" x2="11.42" y2="610.87"/><line class="cls-3" x1="1464.46" y1="895.34" x2="16.39" y2="585.51"/><line class="cls-3" x1="1458.61" y1="920.51" x2="22.24" y2="560.34"/><line class="cls-3" x1="1451.89" y1="945.47" x2="28.96" y2="535.38"/><line class="cls-3" x1="1444.3" y1="970.17" x2="36.55" y2="510.68"/><line class="cls-3" x1="1435.85" y1="994.6" x2="44.99" y2="486.25"/><line class="cls-3" x1="1426.56" y1="1018.71" x2="54.29" y2="462.14"/><line class="cls-3" x1="1416.43" y1="1042.49" x2="64.42" y2="438.36"/><line class="cls-3" x1="1405.48" y1="1065.9" x2="75.37" y2="414.95"/><line class="cls-3" x1="1393.71" y1="1088.91" x2="87.14" y2="391.94"/><line class="cls-3" x1="1381.15" y1="1111.5" x2="99.7" y2="369.35"/><line class="cls-3" x1="1367.81" y1="1133.63" x2="113.04" y2="347.22"/><line class="cls-3" x1="1353.71" y1="1155.29" x2="127.14" y2="325.56"/><line class="cls-3" x1="1338.85" y1="1176.44" x2="141.99" y2="304.41"/><line class="cls-3" x1="1323.27" y1="1197.06" x2="157.58" y2="283.79"/><line class="cls-3" x1="1306.98" y1="1217.12" x2="173.87" y2="263.73"/><line class="cls-3" x1="1290" y1="1236.6" x2="190.85" y2="244.25"/><line class="cls-3" x1="1272.35" y1="1255.48" x2="208.5" y2="225.37"/><line class="cls-3" x1="1254.05" y1="1273.73" x2="226.8" y2="207.12"/><line class="cls-3" x1="1235.12" y1="1291.33" x2="245.72" y2="189.52"/><line class="cls-3" x1="1215.6" y1="1308.26" x2="265.25" y2="172.59"/><line class="cls-3" x1="1195.49" y1="1324.5" x2="285.36" y2="156.35"/><line class="cls-3" x1="1174.83" y1="1340.02" x2="306.02" y2="140.83"/><line class="cls-3" x1="1153.64" y1="1354.82" x2="327.21" y2="126.03"/><line class="cls-3" x1="1131.95" y1="1368.86" x2="348.9" y2="111.98"/><line class="cls-3" x1="1109.77" y1="1382.15" x2="371.07" y2="98.7"/><line class="cls-3" x1="1087.15" y1="1394.64" x2="393.69" y2="86.2"/><line class="cls-3" x1="1064.11" y1="1406.35" x2="416.74" y2="74.5"/><line class="cls-3" x1="1040.67" y1="1417.24" x2="440.18" y2="63.61"/><line class="cls-3" x1="1016.87" y1="1427.3" x2="463.98" y2="53.54"/><line class="cls-3" x1="992.73" y1="1436.53" x2="488.12" y2="44.31"/><line class="cls-3" x1="968.28" y1="1444.91" x2="512.57" y2="35.93"/><line class="cls-3" x1="943.56" y1="1452.44" x2="537.29" y2="28.41"/><line class="cls-3" x1="918.58" y1="1459.09" x2="562.26" y2="21.76"/><line class="cls-3" x1="893.39" y1="1464.87" x2="587.45" y2="15.98"/><line class="cls-3" x1="868.02" y1="1469.77" x2="612.83" y2="11.08"/><line class="cls-3" x1="842.49" y1="1473.78" x2="638.36" y2="7.07"/><line class="cls-3" x1="816.83" y1="1476.89" x2="664.02" y2="3.95"/><line class="cls-3" x1="791.08" y1="1479.11" x2="689.77" y2="1.74"/><line class="cls-3" x1="765.27" y1="1480.43" x2="715.58" y2="0.42"/><line class="cls-3" x1="739.43" y1="1480.85" x2="741.42"/></g></svg>